<svg xmlns="http://www.w3.org/2000/svg" width="40" height="40" fill="none"><rect width="40" height="40" fill="#6D5D6E" rx="20"/><path fill="#fff" d="M13.324 20A6.683 6.683 0 0 0 20 26.676 6.683 6.683 0 0 0 26.676 20 6.683 6.683 0 0 0 20 13.324 6.683 6.683 0 0 0 13.324 20ZM20 15.99c2.21 0 4.01 1.8 4.01 4.01s-1.8 4.01-4.01 4.01A4.014 4.014 0 0 1 15.99 20c0-2.21 1.8-4.01 4.01-4.01Zm-1.336 13.343h2.667v4h-2.667v-4Zm0-22.666h2.667v4h-2.667v-4Zm-12 12h4v2.666h-4v-2.666Zm22.667 0h4v2.666h-4v-2.666ZM9.625 28.484l2.827-2.83 1.887 1.886-2.827 2.83-1.887-1.886Zm16.028-16.025 2.83-2.83 1.885 1.886-2.83 2.829-1.885-1.885Zm-13.197 1.886-2.83-2.829 1.887-1.885 2.827 2.829-1.884 1.885Zm17.912 14.14-1.885 1.886-2.83-2.83 1.886-1.885 2.829 2.83Z"/></svg>