<svg xmlns="http://www.w3.org/2000/svg" width="73" height="73" fill="none"><path fill="url(#a)" fill-rule="evenodd" d="M29.694 4.563c-5.012 0-9.075 3.934-9.075 8.787v6.083h15.706v1.69H13.638c-5.012 0-9.075 3.934-9.075 8.787v13.18c0 4.853 4.063 8.787 9.075 8.787h5.235v-7.435c0-4.853 4.063-8.787 9.075-8.787h16.755c4.24 0 7.678-3.329 7.678-7.435V13.35c0-4.853-4.063-8.787-9.075-8.787H29.694Zm-2.095 10.814c1.735 0 3.142-1.362 3.142-3.041 0-1.68-1.407-3.042-3.142-3.042-1.735 0-3.141 1.362-3.141 3.042 0 1.68 1.406 3.041 3.142 3.041Z" clip-rule="evenodd"/><path fill="url(#b)" fill-rule="evenodd" d="M43.306 68.438c5.012 0 9.075-3.934 9.075-8.787v-6.084H36.674v-1.69h22.688c5.012 0 9.075-3.934 9.075-8.787V29.91c0-4.853-4.063-8.787-9.075-8.787h-5.236v7.435c0 4.853-4.063 8.787-9.075 8.787H28.297c-4.241 0-7.679 3.329-7.679 7.435v14.87c0 4.854 4.063 8.788 9.075 8.788h13.613ZM45.4 57.623c-1.735 0-3.141 1.361-3.141 3.041s1.406 3.042 3.141 3.042 3.142-1.362 3.142-3.042c0-1.68-1.407-3.041-3.142-3.041Z" clip-rule="evenodd"/><defs><linearGradient id="a" x1="28.472" x2="28.472" y1="4.563" y2="51.877" gradientUnits="userSpaceOnUse"><stop stop-color="#327EBD"/><stop offset="1" stop-color="#1565A7"/></linearGradient><linearGradient id="b" x1="44.528" x2="44.528" y1="21.123" y2="68.438" gradientUnits="userSpaceOnUse"><stop stop-color="#FFDA4B"/><stop offset="1" stop-color="#F9C600"/></linearGradient></defs></svg>